<svg width="128" height="128" viewBox="0 0 128 128" fill="none" xmlns="http://www.w3.org/2000/svg">
<g filter="url(#filter0_d_1_335)">
<circle cx="64" cy="60" r="60" fill="#FFECE4"/>
</g>
<rect x="35" y="87.2875" width="40" height="1.45" rx="0.725" transform="rotate(-45.0065 35 87.2875)" fill="#FAA27C"/>
<rect x="63" y="59" width="31" height="1.5" rx="0.75" fill="#D36232"/>
<rect x="37.9678" y="36" width="35" height="1.45" rx="0.725" transform="rotate(41.866 37.9678 36)" fill="#BCB9B9"/>
<g filter="url(#filter1_d_1_335)">
<circle cx="64" cy="60" r="5" fill="#EEEEEE"/>
</g>
<path d="M59.6774 7V5.71H62.0874V13H60.6474V7H59.6774ZM63.9104 11.42C64.5504 10.8867 65.0604 10.4433 65.4404 10.09C65.8204 9.73 66.1371 9.35667 66.3904 8.97C66.6438 8.58333 66.7704 8.20333 66.7704 7.83C66.7704 7.49 66.6904 7.22333 66.5304 7.03C66.3704 6.83667 66.1238 6.74 65.7904 6.74C65.4571 6.74 65.2004 6.85333 65.0204 7.08C64.8404 7.3 64.7471 7.60333 64.7404 7.99H63.3804C63.4071 7.19 63.6438 6.58333 64.0904 6.17C64.5438 5.75667 65.1171 5.55 65.8104 5.55C66.5704 5.55 67.1538 5.75333 67.5604 6.16C67.9671 6.56 68.1704 7.09 68.1704 7.75C68.1704 8.27 68.0304 8.76667 67.7504 9.24C67.4704 9.71333 67.1504 10.1267 66.7904 10.48C66.4304 10.8267 65.9604 11.2467 65.3804 11.74H68.3304V12.9H63.3904V11.86L63.9104 11.42Z" fill="#BE4713"/>
<path d="M65.6118 106.53C65.5451 106.25 65.4284 106.04 65.2618 105.9C65.1018 105.76 64.8684 105.69 64.5618 105.69C64.1018 105.69 63.7618 105.877 63.5418 106.25C63.3284 106.617 63.2184 107.217 63.2118 108.05C63.3718 107.783 63.6051 107.577 63.9118 107.43C64.2184 107.277 64.5518 107.2 64.9118 107.2C65.3451 107.2 65.7284 107.293 66.0618 107.48C66.3951 107.667 66.6551 107.94 66.8418 108.3C67.0284 108.653 67.1218 109.08 67.1218 109.58C67.1218 110.053 67.0251 110.477 66.8318 110.85C66.6451 111.217 66.3684 111.503 66.0018 111.71C65.6351 111.917 65.1984 112.02 64.6918 112.02C63.9984 112.02 63.4518 111.867 63.0518 111.56C62.6584 111.253 62.3818 110.827 62.2218 110.28C62.0684 109.727 61.9918 109.047 61.9918 108.24C61.9918 107.02 62.2018 106.1 62.6218 105.48C63.0418 104.853 63.7051 104.54 64.6118 104.54C65.3118 104.54 65.8551 104.73 66.2418 105.11C66.6284 105.49 66.8518 105.963 66.9118 106.53H65.6118ZM64.5918 108.35C64.2384 108.35 63.9418 108.453 63.7018 108.66C63.4618 108.867 63.3418 109.167 63.3418 109.56C63.3418 109.953 63.4518 110.263 63.6718 110.49C63.8984 110.717 64.2151 110.83 64.6218 110.83C64.9818 110.83 65.2651 110.72 65.4718 110.5C65.6851 110.28 65.7918 109.983 65.7918 109.61C65.7918 109.223 65.6884 108.917 65.4818 108.69C65.2818 108.463 64.9851 108.35 64.5918 108.35Z" fill="#BE4713"/>
<path d="M112.557 57.63C112.59 56.9633 112.824 56.45 113.257 56.09C113.697 55.7233 114.274 55.54 114.987 55.54C115.474 55.54 115.89 55.6267 116.237 55.8C116.584 55.9667 116.844 56.1967 117.017 56.49C117.197 56.7767 117.287 57.1033 117.287 57.47C117.287 57.89 117.177 58.2467 116.957 58.54C116.744 58.8267 116.487 59.02 116.187 59.12V59.16C116.574 59.28 116.874 59.4933 117.087 59.8C117.307 60.1067 117.417 60.5 117.417 60.98C117.417 61.38 117.324 61.7367 117.137 62.05C116.957 62.3633 116.687 62.61 116.327 62.79C115.974 62.9633 115.547 63.05 115.047 63.05C114.294 63.05 113.68 62.86 113.207 62.48C112.734 62.1 112.484 61.54 112.457 60.8H113.817C113.83 61.1267 113.94 61.39 114.147 61.59C114.36 61.7833 114.65 61.88 115.017 61.88C115.357 61.88 115.617 61.7867 115.797 61.6C115.984 61.4067 116.077 61.16 116.077 60.86C116.077 60.46 115.95 60.1733 115.697 60C115.444 59.8267 115.05 59.74 114.517 59.74H114.227V58.59H114.517C115.464 58.59 115.937 58.2733 115.937 57.64C115.937 57.3533 115.85 57.13 115.677 56.97C115.51 56.81 115.267 56.73 114.947 56.73C114.634 56.73 114.39 56.8167 114.217 56.99C114.05 57.1567 113.954 57.37 113.927 57.63H112.557Z" fill="#BE4713"/>
<path d="M13.5201 60.95C13.5735 61.2433 13.6935 61.47 13.8801 61.63C14.0735 61.7833 14.3301 61.86 14.6501 61.86C15.0635 61.86 15.3635 61.69 15.5501 61.35C15.7368 61.0033 15.8301 60.4233 15.8301 59.61C15.6768 59.8233 15.4601 59.99 15.1801 60.11C14.9068 60.23 14.6101 60.29 14.2901 60.29C13.8635 60.29 13.4768 60.2033 13.1301 60.03C12.7901 59.85 12.5201 59.5867 12.3201 59.24C12.1201 58.8867 12.0201 58.46 12.0201 57.96C12.0201 57.22 12.2401 56.6333 12.6801 56.2C13.1201 55.76 13.7201 55.54 14.4801 55.54C15.4268 55.54 16.0935 55.8433 16.4801 56.45C16.8735 57.0567 17.0701 57.97 17.0701 59.19C17.0701 60.0567 16.9935 60.7667 16.8401 61.32C16.6935 61.8733 16.4368 62.2933 16.0701 62.58C15.7101 62.8667 15.2168 63.01 14.5901 63.01C14.0968 63.01 13.6768 62.9167 13.3301 62.73C12.9835 62.5367 12.7168 62.2867 12.5301 61.98C12.3501 61.6667 12.2468 61.3233 12.2201 60.95H13.5201ZM14.5801 59.15C14.9268 59.15 15.2001 59.0433 15.4001 58.83C15.6001 58.6167 15.7001 58.33 15.7001 57.97C15.7001 57.5767 15.5935 57.2733 15.3801 57.06C15.1735 56.84 14.8901 56.73 14.5301 56.73C14.1701 56.73 13.8835 56.8433 13.6701 57.07C13.4635 57.29 13.3601 57.5833 13.3601 57.95C13.3601 58.3033 13.4601 58.5933 13.6601 58.82C13.8668 59.04 14.1735 59.15 14.5801 59.15Z" fill="#BE4713"/>
<defs>
<filter id="filter0_d_1_335" x="0" y="0" width="128" height="128" filterUnits="userSpaceOnUse" color-interpolation-filters="sRGB">
<feFlood flood-opacity="0" result="BackgroundImageFix"/>
<feColorMatrix in="SourceAlpha" type="matrix" values="0 0 0 0 0 0 0 0 0 0 0 0 0 0 0 0 0 0 127 0" result="hardAlpha"/>
<feOffset dy="4"/>
<feGaussianBlur stdDeviation="2"/>
<feColorMatrix type="matrix" values="0 0 0 0 0 0 0 0 0 0 0 0 0 0 0 0 0 0 0.25 0"/>
<feBlend mode="normal" in2="BackgroundImageFix" result="effect1_dropShadow_1_335"/>
<feBlend mode="normal" in="SourceGraphic" in2="effect1_dropShadow_1_335" result="shape"/>
</filter>
<filter id="filter1_d_1_335" x="55" y="55" width="18" height="18" filterUnits="userSpaceOnUse" color-interpolation-filters="sRGB">
<feFlood flood-opacity="0" result="BackgroundImageFix"/>
<feColorMatrix in="SourceAlpha" type="matrix" values="0 0 0 0 0 0 0 0 0 0 0 0 0 0 0 0 0 0 127 0" result="hardAlpha"/>
<feOffset dy="4"/>
<feGaussianBlur stdDeviation="2"/>
<feColorMatrix type="matrix" values="0 0 0 0 0 0 0 0 0 0 0 0 0 0 0 0 0 0 0.25 0"/>
<feBlend mode="normal" in2="BackgroundImageFix" result="effect1_dropShadow_1_335"/>
<feBlend mode="normal" in="SourceGraphic" in2="effect1_dropShadow_1_335" result="shape"/>
</filter>
</defs>
</svg>
